<svg version="1.1" viewBox="0.0 0.0 1331.280839895013 566.6666666666666" fill="none" stroke="none"
  stroke-linecap="square" stroke-miterlimit="10" xmlns:xlink="http://www.w3.org/1999/xlink"
  xmlns="http://www.w3.org/2000/svg">
  <clipPath id="p.0">
    <path d="m0 0l1331.2809 0l0 566.6667l-1331.2809 0l0 -566.6667z" clip-rule="nonzero" />
  </clipPath>
  <g clip-path="url(#p.0)">
    <path d="m0 0l1331.2809 0l0 566.6667l-1331.2809 0z" fill-rule="evenodd" />
    <path fill="#000000" fill-opacity="0.0"
      d="m87.34252 416.8504l155.5748 -355.59058l155.5748 355.59058z" fill-rule="evenodd" />
    <path stroke="#000000" stroke-width="12.0" stroke-linejoin="round" stroke-linecap="butt"
      d="m87.34252 416.8504l155.5748 -355.59058l155.5748 355.59058z" fill-rule="evenodd" />
    <path fill="#ffffff"
      d="m259.46588 146.17058l39.527557 -16.818893l95.653534 224.47244l-39.527557 16.818909z"
      fill-rule="evenodd" />
    <path fill="#3b82f6"
      d="m405.22583 410.59448l0 0c-0.22509766 34.06726 -31.48285 65.46622 -81.960846 82.331085c-50.478027 16.864899 -112.47803 16.623688 -162.56999 -0.6324768c-50.091972 -17.256134 -80.636505 -48.89554 -80.09071 -82.96155l162.3078 0.89416504z"
      fill-rule="evenodd" />
    <path fill="#000000" fill-opacity="0.0"
      d="m167.88583 68.15748l1087.8425 0l0 342.58267l-1087.8425 0z" fill-rule="evenodd" />
    <path fill="#000000"
      d="m280.88583 183.03249q26.125 0 41.984375 18.40625q15.875 18.390625 15.875 54.125q0 22.124985 -10.0 40.656235q-10.0 18.53125 -27.46875 29.203125q-17.46875 10.671875 -39.328125 10.671875q-10.125 0 -22.390625 -2.9375l1.0625 29.859375l0 20.0l26.125 2.9375l0 13.859375l-76.265625 0l0 -13.859375l17.609375 -3.203125l0 -164.51561l-18.140625 -10.9375l0 -11.203125l39.46875 -11.734375l6.9375 2.40625l0 16.0q5.59375 -7.734375 18.25 -13.734375q12.671875 -6.0 26.28125 -6.0zm-13.609375 19.46875q-8.53125 0 -15.46875 3.734375q-6.921875 3.734375 -11.453125 8.265625l0.265625 94.124985q2.65625 4.796875 9.71875 7.609375q7.078125 2.796875 16.40625 2.796875q10.9375 0 20.0 -7.0625q9.0625 -7.078125 14.265625 -20.671875q5.203125 -13.609375 5.203125 -32.53125q0 -27.20311 -10.9375 -41.73436q-10.921875 -14.53125 -28.0 -14.53125zm168.79626 -19.46875q33.0625 0 50.390625 20.140625q17.34375 20.125 17.34375 53.718735q0 23.46875 -9.34375 41.46875q-9.328125 18.0 -25.59375 28.0q-16.265625 10.0 -36.796875 10.0q-34.390625 0 -52.0 -21.203125q-17.59375 -21.203125 -17.59375 -55.328125q0 -23.468735 9.859375 -40.79686q9.875 -17.34375 26.53125 -26.671875q16.671875 -9.328125 37.203125 -9.328125zm-2.65625 16.0q-36.0 0 -36.0 57.062485q0 26.125 9.0625 44.796875q9.0625 18.671875 26.9375 18.9375q19.453125 0.265625 27.578125 -15.46875q8.140625 -15.734375 8.140625 -45.0625q0 -26.937485 -8.671875 -43.593735q-8.65625 -16.671875 -27.046875 -16.671875zm114.12265 117.593735l0 -169.85936l-19.46875 -5.609375l0 -14.125008l46.140625 -5.59375l6.125 2.65625l0 192.26562l23.203125 3.203125l0 13.59375l-75.734375 0l0 -13.59375l19.734375 -2.9375zm108.79535 -201.85938q9.859375 0 15.0625 5.203125q5.203125 5.203125 5.203125 14.000008q0 9.859375 -7.203125 16.265625q-7.203125 6.390625 -16.796875 6.390625q-8.265625 0 -14.265625 -5.328125q-6.0 -5.328125 -6.0 -13.859375q0 -9.34375 7.46875 -16.000008q7.46875 -6.671875 16.53125 -6.671875zm17.328125 72.26563l0 129.59373l20.265564 2.9375l0 13.59375l-72.796814 0l0 -13.59375l20.53125 -2.9375l0 -97.32811l-17.59375 -12.796875l0 -9.609375l41.859375 -12.53125l7.734375 2.671875zm87.729675 0.53125l43.734375 0l0 18.9375l-42.9375 0l0 59.45311q0 20.53125 0.9375 30.140625q0.9375 9.59375 4.0 14.265625q3.0625 4.671875 10.265625 4.671875q5.609375 0 13.734375 -1.859375q8.140625 -1.875 11.328125 -4.015625l5.34375 12.796875q-6.671875 6.671875 -19.875 10.546875q-13.1875 3.859375 -25.1875 3.859375q-17.078125 0 -24.8125 -9.859375q-7.71875 -9.875 -7.71875 -31.203125l0 -88.79686l-19.734375 0l0 -11.46875q12.53125 -3.203125 16.65625 -4.9375q4.140625 -1.734375 7.34375 -6.796875q4.0 -6.9375 10.921875 -30.671875l16.0 0l0 34.9375zm101.86731 -72.79688q9.859375 0 15.0625 5.203125q5.203125 5.203125 5.203125 14.000008q0 9.859375 -7.203125 16.265625q-7.203125 6.390625 -16.796875 6.390625q-8.265625 0 -14.265625 -5.328125q-6.0 -5.328125 -6.0 -13.859375q0 -9.34375 7.46875 -16.000008q7.46875 -6.671875 16.53125 -6.671875zm17.328125 72.26563l0 129.59373l20.265625 2.9375l0 13.59375l-72.796875 0l0 -13.59375l20.53125 -2.9375l0 -97.32811l-17.59375 -12.796875l0 -9.609375l41.859375 -12.53125l7.734375 2.671875zm114.40161 -3.46875q10.9375 -0.53125 22.53125 1.34375q11.593811 1.859375 17.203186 5.0625l0 35.1875l-16.531311 0l-8.0 -19.46875q-6.671875 -5.0625 -19.734375 -5.0625q-17.34375 0 -28.140625 14.40625q-10.796875 14.390625 -10.796875 38.921875q0 19.73436 6.265625 33.60936q6.265625 13.859375 16.65625 20.796875q10.40625 6.9375 22.671875 6.9375q10.140625 0 20.796875 -2.265625q10.671936 -2.28125 16.000061 -5.734375l5.609375 13.0625q-8.53125 7.46875 -23.062561 11.609375q-14.53125 4.125 -31.34375 4.125q-20.53125 0 -35.46875 -9.328125q-14.921875 -9.34375 -22.796875 -26.0q-7.859375 -16.671875 -7.859375 -38.0q0 -23.468735 9.859375 -41.20311q9.875 -17.734375 27.0625 -27.59375q17.203125 -9.875 39.078125 -10.40625zm128.2602 0.796875q25.859375 0 39.984375 11.46875q14.140625 11.46875 14.140625 38.40625l0 85.32811l16.53125 0l0 10.65625q-4.796875 2.9375 -12.53125 4.671875q-7.734375 1.734375 -15.1875 1.734375q-9.609375 0 -13.875 -3.859375q-4.265625 -3.875 -4.53125 -12.671875q-14.671875 16.53125 -41.328125 16.53125q-13.609375 0 -24.28125 -5.203125q-10.65625 -5.203125 -16.53125 -14.53125q-5.859375 -9.328125 -5.859375 -21.0625q0 -17.609375 13.0625 -29.0625q13.078125 -11.468735 32.53125 -16.67186q19.46875 -5.203125 39.203125 -5.203125l0 -8.0q0 -18.125 -8.265625 -25.328125q-8.265625 -7.203125 -24.53125 -7.203125q-8.796875 0 -20.0 2.9375q-11.203125 2.9375 -19.46875 7.46875l-6.125 -14.671875q9.0625 -7.46875 25.984375 -11.59375q16.9375 -4.140625 31.078125 -4.140625zm21.328125 76.531235q-20.0 0 -35.875 7.203125q-15.859375 7.203125 -15.859375 22.9375q0 25.859375 27.46875 25.859375q6.40625 0 13.203125 -2.65625q6.796875 -2.671875 10.796875 -6.40625l0.265625 -46.9375z"
      fill-rule="nonzero" />
    <path fill="#ffffff"
      d="m398.89047 392.333l10.992126 30.173218l-3.338562 1.1968384l-10.992126 -30.173218z"
      fill-rule="evenodd" />
    <path fill="#ffffff"
      d="m407.34778 400.16797l0.15750122 32.126007l-3.7480469 0l-0.1574707 -32.126007z"
      fill-rule="evenodd" />
    <path fill="#ffffff"
      d="m404.58862 400.0912l4.4724426 31.811035l-3.5275574 0.4724121l-4.4724426 -31.811005z"
      fill-rule="evenodd" />
    <path fill="#ffffff"
      d="m86.54403 392.333l-10.992126 30.173218l3.338585 1.1968384l10.992126 -30.173218z"
      fill-rule="evenodd" />
    <path fill="#ffffff"
      d="m78.08682 400.16904l-0.15747833 32.126007l3.5590515 0l0.15747833 -32.126007z"
      fill-rule="evenodd" />
    <path fill="#ffffff"
      d="m80.8457 400.09186l-4.4724426 31.811035l3.6535416 0.47244263l4.4724426 -31.811035z"
      fill-rule="evenodd" />
  </g>
</svg>